<?xml version="1.0" encoding="utf-8"?>
<!-- Generator: Adobe Illustrator 22.1.0, SVG Export Plug-In . SVG Version: 6.00 Build 0)  -->
<svg version="1.1" id="Calque_1" xmlns="http://www.w3.org/2000/svg" xmlns:xlink="http://www.w3.org/1999/xlink" x="0px" y="0px"
	 viewBox="0 0 16 19.4" style="enable-background:new 0 0 16 19.4;" xml:space="preserve">
<style type="text/css">
	.st0{fill:#FFFFFF;}
</style>
<g>
	<path class="st0" d="M0.2,11.9C0.1,11.7,0,11.6,0,11.3s0.1-0.4,0.2-0.6l1.2-1.1c0.1-0.2,0.3-0.3,0.5-0.3s0.4,0.1,0.6,0.3L6,13.1
		l7.5-7.5c0.2-0.2,0.4-0.3,0.6-0.3s0.4,0.1,0.5,0.3l1.2,1.1C15.9,6.9,16,7.1,16,7.3s-0.1,0.4-0.2,0.6l-9.2,9.2
		c-0.1,0.2-0.3,0.3-0.6,0.3s-0.4-0.1-0.6-0.3L0.2,11.9z"/>
</g>
<g>
	<path class="st0" d="M1.6,6.8C1.5,6.7,1.5,6.6,1.5,6.4S1.5,6.1,1.6,6l0.9-0.8C2.6,5,2.8,5,2.9,5S3.2,5,3.3,5.1L6,7.8l5.6-5.6
		C11.7,2,11.9,2,12,2s0.3,0.1,0.4,0.2L13.3,3c0.1,0.1,0.2,0.3,0.2,0.4s-0.1,0.3-0.2,0.4l-6.9,6.9c-0.1,0.1-0.3,0.2-0.4,0.2
		s-0.3-0.1-0.4-0.2L1.6,6.8z"/>
</g>
</svg>
